<mxfile host="65bd71144e">
    <diagram id="cOPPHnaynSb4PC9Ppda5" name="ページ1">
        <mxGraphModel dx="1659" dy="2813" grid="1" gridSize="10" guides="1" tooltips="1" connect="1" arrows="1" fold="1" page="1" pageScale="1" pageWidth="827" pageHeight="1169" math="0" shadow="0">
            <root>
                <mxCell id="0"/>
                <mxCell id="1" parent="0"/>
                <mxCell id="155" value="" style="shape=cylinder3;whiteSpace=wrap;html=1;boundedLbl=1;backgroundOutline=1;size=12;fontColor=#080808;" parent="1" vertex="1">
                    <mxGeometry x="103" y="-1151" width="133" height="135" as="geometry"/>
                </mxCell>
                <mxCell id="91" value="" style="shape=cylinder3;whiteSpace=wrap;html=1;boundedLbl=1;backgroundOutline=1;size=12;fontColor=#080808;" parent="1" vertex="1">
                    <mxGeometry x="-37" y="-1151" width="133" height="135" as="geometry"/>
                </mxCell>
                <mxCell id="150" style="edgeStyle=none;html=1;exitX=1;exitY=0.5;exitDx=0;exitDy=0;entryX=1;entryY=0.25;entryDx=0;entryDy=0;" parent="1" target="138" edge="1">
                    <mxGeometry relative="1" as="geometry">
                        <mxPoint x="-593" y="-966" as="sourcePoint"/>
                    </mxGeometry>
                </mxCell>
                <mxCell id="61" value="" style="rounded=1;whiteSpace=wrap;html=1;fillColor=#cdeb8b;strokeColor=#36393d;" parent="1" vertex="1">
                    <mxGeometry x="-622" y="-1050" width="134" height="90" as="geometry"/>
                </mxCell>
                <mxCell id="37" value="" style="rounded=1;whiteSpace=wrap;html=1;" parent="1" vertex="1">
                    <mxGeometry x="-629" y="-592" width="150" height="100" as="geometry"/>
                </mxCell>
                <mxCell id="38" value="ユーザーID&lt;br&gt;クイズセレクタ" style="rounded=1;whiteSpace=wrap;html=1;fillColor=#1ba1e2;fontColor=#ffffff;strokeColor=#006EAF;" parent="1" vertex="1">
                    <mxGeometry x="-614" y="-563" width="116" height="47" as="geometry"/>
                </mxCell>
                <mxCell id="39" value="アプリケーションスコープ" style="text;html=1;strokeColor=none;fillColor=none;align=center;verticalAlign=middle;whiteSpace=wrap;rounded=0;" parent="1" vertex="1">
                    <mxGeometry x="-629" y="-588" width="150" height="20" as="geometry"/>
                </mxCell>
                <mxCell id="40" value="&quot;userId&quot; &quot;quizSelect&quot;" style="text;html=1;strokeColor=none;fillColor=none;align=center;verticalAlign=middle;whiteSpace=wrap;rounded=0;" parent="1" vertex="1">
                    <mxGeometry x="-615" y="-513" width="130" height="20" as="geometry"/>
                </mxCell>
                <mxCell id="41" value="" style="endArrow=classic;html=1;exitX=1;exitY=0.5;exitDx=0;exitDy=0;" parent="1" source="83" edge="1">
                    <mxGeometry width="50" height="50" relative="1" as="geometry">
                        <mxPoint x="-649" y="-386" as="sourcePoint"/>
                        <mxPoint x="-540" y="-483" as="targetPoint"/>
                        <Array as="points">
                            <mxPoint x="-510" y="-503"/>
                            <mxPoint x="-520" y="-503"/>
                        </Array>
                    </mxGeometry>
                </mxCell>
                <mxCell id="43" value="" style="endArrow=classic;html=1;entryX=0.75;entryY=0;entryDx=0;entryDy=0;" parent="1" target="37" edge="1">
                    <mxGeometry width="50" height="50" relative="1" as="geometry">
                        <mxPoint x="-520" y="-974" as="sourcePoint"/>
                        <mxPoint x="-266" y="-937" as="targetPoint"/>
                        <Array as="points">
                            <mxPoint x="-500" y="-950"/>
                            <mxPoint x="-480" y="-920"/>
                            <mxPoint x="-470" y="-870"/>
                            <mxPoint x="-470" y="-800"/>
                            <mxPoint x="-480" y="-680"/>
                        </Array>
                    </mxGeometry>
                </mxCell>
                <mxCell id="46" value="POST" style="text;html=1;strokeColor=none;fillColor=none;align=center;verticalAlign=middle;whiteSpace=wrap;rounded=0;" parent="1" vertex="1">
                    <mxGeometry x="-710" y="-1042" width="60" height="20" as="geometry"/>
                </mxCell>
                <mxCell id="57" value="userId=入力値&lt;br&gt;quizSelect=NULL" style="rounded=1;whiteSpace=wrap;html=1;align=left;" parent="1" vertex="1">
                    <mxGeometry x="-772" y="-1024" width="112" height="38" as="geometry"/>
                </mxCell>
                <mxCell id="58" value="" style="endArrow=classic;html=1;entryX=0;entryY=0.5;entryDx=0;entryDy=0;" parent="1" target="57" edge="1">
                    <mxGeometry width="50" height="50" relative="1" as="geometry">
                        <mxPoint x="-800" y="-1005" as="sourcePoint"/>
                        <mxPoint x="-774" y="-944" as="targetPoint"/>
                    </mxGeometry>
                </mxCell>
                <mxCell id="59" value="" style="endArrow=classic;html=1;entryX=0;entryY=0.5;entryDx=0;entryDy=0;exitX=1;exitY=0.5;exitDx=0;exitDy=0;" parent="1" source="57" target="60" edge="1">
                    <mxGeometry width="50" height="50" relative="1" as="geometry">
                        <mxPoint x="-660" y="-1005" as="sourcePoint"/>
                        <mxPoint x="-610" y="-1005" as="targetPoint"/>
                    </mxGeometry>
                </mxCell>
                <mxCell id="60" value="QuizControlServlet&lt;br&gt;doPost()" style="rounded=1;whiteSpace=wrap;html=1;" parent="1" vertex="1">
                    <mxGeometry x="-610" y="-1025" width="110" height="40" as="geometry"/>
                </mxCell>
                <mxCell id="62" value="Servlet" style="text;html=1;strokeColor=none;fillColor=none;align=center;verticalAlign=middle;whiteSpace=wrap;rounded=0;fontColor=#050505;" parent="1" vertex="1">
                    <mxGeometry x="-583" y="-1044" width="60" height="20" as="geometry"/>
                </mxCell>
                <mxCell id="63" value="" style="rounded=1;whiteSpace=wrap;html=1;fillColor=#cdeb8b;strokeColor=#36393d;" parent="1" vertex="1">
                    <mxGeometry x="-467" y="-1049" width="407" height="90" as="geometry"/>
                </mxCell>
                <mxCell id="64" value="" style="endArrow=classic;html=1;entryX=0;entryY=0.25;entryDx=0;entryDy=0;exitX=1;exitY=0.25;exitDx=0;exitDy=0;" parent="1" source="60" target="65" edge="1">
                    <mxGeometry width="50" height="50" relative="1" as="geometry">
                        <mxPoint x="-523" y="-1004" as="sourcePoint"/>
                        <mxPoint x="-474" y="-1004" as="targetPoint"/>
                    </mxGeometry>
                </mxCell>
                <mxCell id="65" value="QuizSelectLogic&lt;br&gt;execute()" style="rounded=1;whiteSpace=wrap;html=1;" parent="1" vertex="1">
                    <mxGeometry x="-406" y="-1024" width="110" height="40" as="geometry"/>
                </mxCell>
                <mxCell id="66" value="BO" style="text;html=1;strokeColor=none;fillColor=none;align=center;verticalAlign=middle;whiteSpace=wrap;rounded=0;fontColor=#050505;" parent="1" vertex="1">
                    <mxGeometry x="-379" y="-1043" width="60" height="20" as="geometry"/>
                </mxCell>
                <mxCell id="67" value="UserQuizExclusionDAO&lt;br&gt;findByAllQuiz()" style="rounded=1;whiteSpace=wrap;html=1;" parent="1" vertex="1">
                    <mxGeometry x="-220" y="-1024" width="142" height="40" as="geometry"/>
                </mxCell>
                <mxCell id="68" value="DAO" style="text;html=1;strokeColor=none;fillColor=none;align=center;verticalAlign=middle;whiteSpace=wrap;rounded=0;fontColor=#050505;" parent="1" vertex="1">
                    <mxGeometry x="-161" y="-1043" width="60" height="20" as="geometry"/>
                </mxCell>
                <mxCell id="69" value="Select" style="text;html=1;strokeColor=none;fillColor=none;align=center;verticalAlign=middle;whiteSpace=wrap;rounded=0;fontColor=#050505;" parent="1" vertex="1">
                    <mxGeometry x="-473" y="-1031" width="60" height="20" as="geometry"/>
                </mxCell>
                <mxCell id="70" value="" style="endArrow=classic;html=1;fontColor=#050505;exitX=0;exitY=0.75;exitDx=0;exitDy=0;entryX=1;entryY=0.75;entryDx=0;entryDy=0;" parent="1" source="65" target="60" edge="1">
                    <mxGeometry width="50" height="50" relative="1" as="geometry">
                        <mxPoint x="-410" y="-1044" as="sourcePoint"/>
                        <mxPoint x="-360" y="-1094" as="targetPoint"/>
                    </mxGeometry>
                </mxCell>
                <mxCell id="71" value="true" style="text;html=1;strokeColor=none;fillColor=none;align=center;verticalAlign=middle;whiteSpace=wrap;rounded=0;fontColor=#050505;" parent="1" vertex="1">
                    <mxGeometry x="-472" y="-995" width="60" height="20" as="geometry"/>
                </mxCell>
                <mxCell id="72" value="" style="endArrow=classic;html=1;entryX=0;entryY=0.25;entryDx=0;entryDy=0;exitX=1;exitY=0.25;exitDx=0;exitDy=0;" parent="1" source="65" target="67" edge="1">
                    <mxGeometry width="50" height="50" relative="1" as="geometry">
                        <mxPoint x="-294" y="-1015" as="sourcePoint"/>
                        <mxPoint x="-200" y="-1014" as="targetPoint"/>
                    </mxGeometry>
                </mxCell>
                <mxCell id="73" value="Select" style="text;html=1;strokeColor=none;fillColor=none;align=center;verticalAlign=middle;whiteSpace=wrap;rounded=0;fontColor=#050505;" parent="1" vertex="1">
                    <mxGeometry x="-287" y="-1031" width="60" height="20" as="geometry"/>
                </mxCell>
                <mxCell id="74" value="" style="endArrow=classic;html=1;fontColor=#050505;exitX=0;exitY=0.75;exitDx=0;exitDy=0;entryX=1;entryY=0.75;entryDx=0;entryDy=0;" parent="1" source="67" target="65" edge="1">
                    <mxGeometry width="50" height="50" relative="1" as="geometry">
                        <mxPoint x="-200" y="-994" as="sourcePoint"/>
                        <mxPoint x="-294" y="-995" as="targetPoint"/>
                    </mxGeometry>
                </mxCell>
                <mxCell id="75" value="AllQuiz" style="text;html=1;strokeColor=none;fillColor=none;align=center;verticalAlign=middle;whiteSpace=wrap;rounded=0;fontColor=#050505;" parent="1" vertex="1">
                    <mxGeometry x="-286" y="-995" width="60" height="20" as="geometry"/>
                </mxCell>
                <mxCell id="76" value="" style="shape=cylinder3;whiteSpace=wrap;html=1;boundedLbl=1;backgroundOutline=1;size=15;fontColor=#050505;" parent="1" vertex="1">
                    <mxGeometry x="687" y="-810" width="140" height="130" as="geometry"/>
                </mxCell>
                <mxCell id="80" value="" style="endArrow=classic;startArrow=classic;html=1;fontColor=#ffffff;entryX=0;entryY=0.5;entryDx=0;entryDy=0;exitX=0;exitY=0;exitDx=0;exitDy=0;" parent="1" source="88" target="77" edge="1">
                    <mxGeometry width="50" height="50" relative="1" as="geometry">
                        <mxPoint x="-80" y="-1007" as="sourcePoint"/>
                        <mxPoint x="-160" y="-1057" as="targetPoint"/>
                    </mxGeometry>
                </mxCell>
                <mxCell id="82" value="" style="rounded=1;whiteSpace=wrap;html=1;fillColor=#cdeb8b;strokeColor=#36393d;" parent="1" vertex="1">
                    <mxGeometry x="-623" y="-451" width="134" height="90" as="geometry"/>
                </mxCell>
                <mxCell id="83" value="JSP" style="text;html=1;strokeColor=none;fillColor=none;align=center;verticalAlign=middle;whiteSpace=wrap;rounded=0;fontColor=#050505;" parent="1" vertex="1">
                    <mxGeometry x="-582" y="-445" width="60" height="20" as="geometry"/>
                </mxCell>
                <mxCell id="30" value="quizAnswers.jsp" style="rounded=1;whiteSpace=wrap;html=1;" parent="1" vertex="1">
                    <mxGeometry x="-617" y="-422" width="120" height="31" as="geometry"/>
                </mxCell>
                <mxCell id="84" value="&#10;&#10;&#10;&#10;［フィールド］&#10;・String userId&#10;・String quizSelect" style="swimlane;startSize=0;fontColor=#ffffff;align=left;" parent="1" vertex="1">
                    <mxGeometry x="-454" y="-1110" width="124" height="59" as="geometry"/>
                </mxCell>
                <mxCell id="85" value="①" style="text;html=1;strokeColor=none;fillColor=none;align=center;verticalAlign=middle;whiteSpace=wrap;rounded=0;fontColor=#ffffff;" parent="1" vertex="1">
                    <mxGeometry x="-796" y="-1024" width="30" height="20" as="geometry"/>
                </mxCell>
                <mxCell id="86" value="②" style="text;html=1;strokeColor=none;fillColor=none;align=center;verticalAlign=middle;whiteSpace=wrap;rounded=0;fontColor=#0d0c0c;" parent="1" vertex="1">
                    <mxGeometry x="-629" y="-1032" width="30" height="20" as="geometry"/>
                </mxCell>
                <mxCell id="87" value="&lt;font color=&quot;#080808&quot;&gt;⑤&lt;/font&gt;" style="text;html=1;strokeColor=none;fillColor=none;align=center;verticalAlign=middle;whiteSpace=wrap;rounded=0;fontColor=#ffffff;" parent="1" vertex="1">
                    <mxGeometry x="-301" y="-1031" width="30" height="20" as="geometry"/>
                </mxCell>
                <mxCell id="88" value="&lt;font color=&quot;#080808&quot;&gt;⑥&lt;/font&gt;" style="text;html=1;strokeColor=none;fillColor=none;align=center;verticalAlign=middle;whiteSpace=wrap;rounded=0;fontColor=#ffffff;" parent="1" vertex="1">
                    <mxGeometry x="-82" y="-1026" width="30" height="20" as="geometry"/>
                </mxCell>
                <mxCell id="89" value="&lt;font color=&quot;#080808&quot;&gt;⑦&lt;/font&gt;" style="text;html=1;strokeColor=none;fillColor=none;align=center;verticalAlign=middle;whiteSpace=wrap;rounded=0;fontColor=#ffffff;" parent="1" vertex="1">
                    <mxGeometry x="-242" y="-994" width="30" height="20" as="geometry"/>
                </mxCell>
                <mxCell id="77" value="&lt;div style=&quot;&quot;&gt;&lt;span style=&quot;color: rgb(255, 255, 255); background-color: initial;&quot;&gt;&lt;br&gt;&lt;/span&gt;&lt;/div&gt;&lt;div style=&quot;&quot;&gt;&lt;span style=&quot;color: rgb(255, 255, 255); background-color: initial;&quot;&gt;&lt;br&gt;&lt;/span&gt;&lt;/div&gt;&lt;div style=&quot;&quot;&gt;&lt;span style=&quot;color: rgb(255, 255, 255); background-color: initial;&quot;&gt;&lt;br&gt;&lt;/span&gt;&lt;/div&gt;&lt;div style=&quot;&quot;&gt;&lt;span style=&quot;color: rgb(255, 255, 255); background-color: initial;&quot;&gt;&lt;br&gt;&lt;/span&gt;&lt;/div&gt;&lt;div style=&quot;&quot;&gt;&lt;span style=&quot;color: rgb(255, 255, 255); background-color: initial;&quot;&gt;&lt;br&gt;&lt;/span&gt;&lt;/div&gt;&lt;div style=&quot;&quot;&gt;&lt;span style=&quot;color: rgb(255, 255, 255); background-color: initial;&quot;&gt;&lt;br&gt;&lt;/span&gt;&lt;/div&gt;&lt;div style=&quot;&quot;&gt;&lt;span style=&quot;color: rgb(255, 255, 255); background-color: initial;&quot;&gt;&lt;br&gt;&lt;/span&gt;&lt;/div&gt;&lt;div style=&quot;&quot;&gt;&lt;span style=&quot;color: rgb(255, 255, 255); background-color: initial;&quot;&gt;&lt;br&gt;&lt;/span&gt;&lt;/div&gt;&lt;div style=&quot;&quot;&gt;&lt;span style=&quot;background-color: initial; color: rgb(255, 255, 255);&quot;&gt;QUIZ&lt;/span&gt;&lt;/div&gt;&lt;div style=&quot;&quot;&gt;&lt;span style=&quot;background-color: initial; color: rgb(255, 255, 255);&quot;&gt;テーブル&lt;/span&gt;&lt;br&gt;&lt;/div&gt;" style="swimlane;whiteSpace=wrap;html=1;startSize=12;align=center;fillColor=#cce5ff;strokeColor=#f7f7f8;" parent="1" vertex="1">
                    <mxGeometry x="-24" y="-1122" width="110" height="90" as="geometry"/>
                </mxCell>
                <mxCell id="92" value="&lt;font color=&quot;#080808&quot;&gt;⑧&lt;/font&gt;" style="text;html=1;strokeColor=none;fillColor=none;align=center;verticalAlign=middle;whiteSpace=wrap;rounded=0;fontColor=#ffffff;" parent="1" vertex="1">
                    <mxGeometry x="-430" y="-994" width="30" height="20" as="geometry"/>
                </mxCell>
                <mxCell id="95" value="" style="endArrow=classic;html=1;fontColor=#0d0c0c;exitX=0;exitY=0.25;exitDx=0;exitDy=0;entryX=0;entryY=0;entryDx=0;entryDy=0;" parent="1" target="103" edge="1">
                    <mxGeometry width="50" height="50" relative="1" as="geometry">
                        <mxPoint x="-623" y="-984" as="sourcePoint"/>
                        <mxPoint x="-630" y="-724" as="targetPoint"/>
                        <Array as="points">
                            <mxPoint x="-640" y="-940"/>
                            <mxPoint x="-650" y="-890"/>
                            <mxPoint x="-650" y="-820"/>
                            <mxPoint x="-650" y="-660"/>
                        </Array>
                    </mxGeometry>
                </mxCell>
                <mxCell id="96" value="&quot;userId&quot; = ①のuserId" style="text;html=1;strokeColor=none;fillColor=none;align=center;verticalAlign=middle;whiteSpace=wrap;rounded=0;" parent="1" vertex="1">
                    <mxGeometry x="-573" y="-643" width="130" height="20" as="geometry"/>
                </mxCell>
                <mxCell id="97" value="保存" style="text;html=1;strokeColor=none;fillColor=none;align=center;verticalAlign=middle;whiteSpace=wrap;rounded=0;" parent="1" vertex="1">
                    <mxGeometry x="-533" y="-619" width="37" height="20" as="geometry"/>
                </mxCell>
                <mxCell id="98" value="取得" style="text;html=1;strokeColor=none;fillColor=none;align=center;verticalAlign=middle;whiteSpace=wrap;rounded=0;" parent="1" vertex="1">
                    <mxGeometry x="-532" y="-489" width="37" height="20" as="geometry"/>
                </mxCell>
                <mxCell id="99" value="&quot;userId&quot; &quot;quizSelect&quot;" style="text;html=1;strokeColor=none;fillColor=none;align=center;verticalAlign=middle;whiteSpace=wrap;rounded=0;" parent="1" vertex="1">
                    <mxGeometry x="-616" y="-471" width="130" height="20" as="geometry"/>
                </mxCell>
                <mxCell id="100" value="⑮" style="text;html=1;strokeColor=none;fillColor=none;align=center;verticalAlign=middle;whiteSpace=wrap;rounded=0;fontColor=#0d0c0c;" parent="1" vertex="1">
                    <mxGeometry x="-531" y="-450" width="30" height="20" as="geometry"/>
                </mxCell>
                <mxCell id="101" value="フォワード" style="text;html=1;strokeColor=none;fillColor=none;align=center;verticalAlign=middle;whiteSpace=wrap;rounded=0;" parent="1" vertex="1">
                    <mxGeometry x="-696" y="-653" width="67" height="20" as="geometry"/>
                </mxCell>
                <mxCell id="102" value="&lt;b&gt;【Ｃ】&lt;/b&gt;" style="text;html=1;strokeColor=none;fillColor=none;align=center;verticalAlign=middle;whiteSpace=wrap;rounded=0;fontColor=#0d0c0c;" parent="1" vertex="1">
                    <mxGeometry x="-626" y="-1057" width="43" height="35" as="geometry"/>
                </mxCell>
                <mxCell id="103" value="&lt;b&gt;【Ｖ】&lt;/b&gt;" style="text;html=1;strokeColor=none;fillColor=none;align=center;verticalAlign=middle;whiteSpace=wrap;rounded=0;fontColor=#0d0c0c;" parent="1" vertex="1">
                    <mxGeometry x="-628" y="-457" width="43" height="35" as="geometry"/>
                </mxCell>
                <mxCell id="104" value="&lt;b&gt;【Ｍ】&lt;/b&gt;" style="text;html=1;strokeColor=none;fillColor=none;align=center;verticalAlign=middle;whiteSpace=wrap;rounded=0;fontColor=#0d0c0c;" parent="1" vertex="1">
                    <mxGeometry x="-262" y="-1058" width="43" height="35" as="geometry"/>
                </mxCell>
                <mxCell id="105" value="" style="endArrow=classic;html=1;fontColor=#0d0c0c;exitX=0;exitY=0.5;exitDx=0;exitDy=0;" parent="1" source="82" edge="1">
                    <mxGeometry width="50" height="50" relative="1" as="geometry">
                        <mxPoint x="-590" y="-523" as="sourcePoint"/>
                        <mxPoint x="-750" y="-406" as="targetPoint"/>
                    </mxGeometry>
                </mxCell>
                <mxCell id="106" value="USER_QUIZ を除く&lt;br&gt;全てのQUIZとANSWER&lt;br&gt;を全てselect" style="text;html=1;strokeColor=none;fillColor=none;align=center;verticalAlign=middle;whiteSpace=wrap;rounded=0;" parent="1" vertex="1">
                    <mxGeometry x="-160" y="-958" width="117" height="68" as="geometry"/>
                </mxCell>
                <mxCell id="108" value="Servlet" style="text;html=1;strokeColor=none;fillColor=none;align=center;verticalAlign=middle;whiteSpace=wrap;rounded=0;fontColor=#050505;" parent="1" vertex="1">
                    <mxGeometry x="-583" y="-748" width="60" height="20" as="geometry"/>
                </mxCell>
                <mxCell id="109" value="" style="rounded=1;whiteSpace=wrap;html=1;fillColor=#cdeb8b;strokeColor=#36393d;" parent="1" vertex="1">
                    <mxGeometry x="-467" y="-753" width="407" height="90" as="geometry"/>
                </mxCell>
                <mxCell id="110" value="" style="endArrow=classic;html=1;entryX=0;entryY=0.25;entryDx=0;entryDy=0;exitX=1;exitY=0.25;exitDx=0;exitDy=0;" parent="1" target="111" edge="1">
                    <mxGeometry width="50" height="50" relative="1" as="geometry">
                        <mxPoint x="-500" y="-719" as="sourcePoint"/>
                        <mxPoint x="-474" y="-708" as="targetPoint"/>
                    </mxGeometry>
                </mxCell>
                <mxCell id="111" value="AnswerJudgeLogic&lt;br&gt;execute()" style="rounded=1;whiteSpace=wrap;html=1;" parent="1" vertex="1">
                    <mxGeometry x="-406" y="-728" width="110" height="40" as="geometry"/>
                </mxCell>
                <mxCell id="112" value="BO" style="text;html=1;strokeColor=none;fillColor=none;align=center;verticalAlign=middle;whiteSpace=wrap;rounded=0;fontColor=#050505;" parent="1" vertex="1">
                    <mxGeometry x="-379" y="-747" width="60" height="20" as="geometry"/>
                </mxCell>
                <mxCell id="113" value="UserQuizDAO&lt;br&gt;insertByJudge()" style="rounded=1;whiteSpace=wrap;html=1;" parent="1" vertex="1">
                    <mxGeometry x="-188" y="-728" width="110" height="40" as="geometry"/>
                </mxCell>
                <mxCell id="114" value="DAO" style="text;html=1;strokeColor=none;fillColor=none;align=center;verticalAlign=middle;whiteSpace=wrap;rounded=0;fontColor=#050505;" parent="1" vertex="1">
                    <mxGeometry x="-161" y="-747" width="60" height="20" as="geometry"/>
                </mxCell>
                <mxCell id="115" value="Input" style="text;html=1;strokeColor=none;fillColor=none;align=center;verticalAlign=middle;whiteSpace=wrap;rounded=0;fontColor=#050505;" parent="1" vertex="1">
                    <mxGeometry x="-473" y="-735" width="60" height="20" as="geometry"/>
                </mxCell>
                <mxCell id="116" value="" style="endArrow=classic;html=1;fontColor=#050505;exitX=0;exitY=0.75;exitDx=0;exitDy=0;entryX=1;entryY=0.75;entryDx=0;entryDy=0;" parent="1" source="111" edge="1">
                    <mxGeometry width="50" height="50" relative="1" as="geometry">
                        <mxPoint x="-410" y="-748" as="sourcePoint"/>
                        <mxPoint x="-500" y="-699" as="targetPoint"/>
                    </mxGeometry>
                </mxCell>
                <mxCell id="117" value="true" style="text;html=1;strokeColor=none;fillColor=none;align=center;verticalAlign=middle;whiteSpace=wrap;rounded=0;fontColor=#050505;" parent="1" vertex="1">
                    <mxGeometry x="-472" y="-699" width="60" height="20" as="geometry"/>
                </mxCell>
                <mxCell id="118" value="" style="endArrow=classic;html=1;entryX=0;entryY=0.25;entryDx=0;entryDy=0;exitX=1;exitY=0.25;exitDx=0;exitDy=0;" parent="1" source="111" target="113" edge="1">
                    <mxGeometry width="50" height="50" relative="1" as="geometry">
                        <mxPoint x="-294" y="-719" as="sourcePoint"/>
                        <mxPoint x="-200" y="-718" as="targetPoint"/>
                    </mxGeometry>
                </mxCell>
                <mxCell id="119" value="Judge" style="text;html=1;strokeColor=none;fillColor=none;align=center;verticalAlign=middle;whiteSpace=wrap;rounded=0;fontColor=#050505;" parent="1" vertex="1">
                    <mxGeometry x="-267" y="-735" width="60" height="20" as="geometry"/>
                </mxCell>
                <mxCell id="120" value="" style="endArrow=classic;html=1;fontColor=#050505;exitX=0;exitY=0.75;exitDx=0;exitDy=0;entryX=1;entryY=0.75;entryDx=0;entryDy=0;" parent="1" source="113" target="111" edge="1">
                    <mxGeometry width="50" height="50" relative="1" as="geometry">
                        <mxPoint x="-200" y="-698" as="sourcePoint"/>
                        <mxPoint x="-294" y="-699" as="targetPoint"/>
                    </mxGeometry>
                </mxCell>
                <mxCell id="121" value="UserQuiz&lt;br&gt;UserAnswer" style="text;html=1;strokeColor=none;fillColor=none;align=center;verticalAlign=middle;whiteSpace=wrap;rounded=0;fontColor=#050505;" parent="1" vertex="1">
                    <mxGeometry x="-280" y="-697" width="74" height="29" as="geometry"/>
                </mxCell>
                <mxCell id="125" value="②" style="text;html=1;strokeColor=none;fillColor=none;align=center;verticalAlign=middle;whiteSpace=wrap;rounded=0;fontColor=#0d0c0c;" parent="1" vertex="1">
                    <mxGeometry x="-509" y="-736" width="30" height="20" as="geometry"/>
                </mxCell>
                <mxCell id="126" value="&lt;font color=&quot;#080808&quot;&gt;⑪&lt;/font&gt;" style="text;html=1;strokeColor=none;fillColor=none;align=center;verticalAlign=middle;whiteSpace=wrap;rounded=0;fontColor=#ffffff;" parent="1" vertex="1">
                    <mxGeometry x="-301" y="-735" width="30" height="20" as="geometry"/>
                </mxCell>
                <mxCell id="127" value="&lt;font color=&quot;#080808&quot;&gt;⑫&lt;/font&gt;" style="text;html=1;strokeColor=none;fillColor=none;align=center;verticalAlign=middle;whiteSpace=wrap;rounded=0;fontColor=#ffffff;" parent="1" vertex="1">
                    <mxGeometry x="-82" y="-729" width="30" height="20" as="geometry"/>
                </mxCell>
                <mxCell id="128" value="&lt;font color=&quot;#080808&quot;&gt;⑬&lt;/font&gt;" style="text;html=1;strokeColor=none;fillColor=none;align=center;verticalAlign=middle;whiteSpace=wrap;rounded=0;fontColor=#ffffff;" parent="1" vertex="1">
                    <mxGeometry x="-214" y="-698" width="30" height="20" as="geometry"/>
                </mxCell>
                <mxCell id="130" value="&lt;font color=&quot;#080808&quot;&gt;⑭&lt;/font&gt;" style="text;html=1;strokeColor=none;fillColor=none;align=center;verticalAlign=middle;whiteSpace=wrap;rounded=0;fontColor=#ffffff;" parent="1" vertex="1">
                    <mxGeometry x="-430" y="-698" width="30" height="20" as="geometry"/>
                </mxCell>
                <mxCell id="131" value="⑦" style="text;html=1;strokeColor=none;fillColor=none;align=center;verticalAlign=middle;whiteSpace=wrap;rounded=0;fontColor=#0d0c0c;" parent="1" vertex="1">
                    <mxGeometry x="-509" y="-695" width="30" height="20" as="geometry"/>
                </mxCell>
                <mxCell id="132" value="&lt;b&gt;【Ｍ】&lt;/b&gt;" style="text;html=1;strokeColor=none;fillColor=none;align=center;verticalAlign=middle;whiteSpace=wrap;rounded=0;fontColor=#0d0c0c;" parent="1" vertex="1">
                    <mxGeometry x="-262" y="-762" width="43" height="35" as="geometry"/>
                </mxCell>
                <mxCell id="133" value="USER_QUIZと&lt;br&gt;USER_ANSWER&lt;br&gt;に判定結果を全て&lt;br&gt;insert or update" style="text;html=1;strokeColor=none;fillColor=none;align=center;verticalAlign=middle;whiteSpace=wrap;rounded=0;" parent="1" vertex="1">
                    <mxGeometry x="-151" y="-661" width="117" height="71" as="geometry"/>
                </mxCell>
                <mxCell id="134" value="" style="rounded=1;whiteSpace=wrap;html=1;fillColor=#cdeb8b;strokeColor=#36393d;" parent="1" vertex="1">
                    <mxGeometry x="-622" y="-899" width="134" height="90" as="geometry"/>
                </mxCell>
                <mxCell id="135" value="JSP" style="text;html=1;strokeColor=none;fillColor=none;align=center;verticalAlign=middle;whiteSpace=wrap;rounded=0;fontColor=#050505;" parent="1" vertex="1">
                    <mxGeometry x="-581" y="-893" width="60" height="20" as="geometry"/>
                </mxCell>
                <mxCell id="136" value="quizSelectNG.jsp" style="rounded=1;whiteSpace=wrap;html=1;" parent="1" vertex="1">
                    <mxGeometry x="-616" y="-870" width="120" height="31" as="geometry"/>
                </mxCell>
                <mxCell id="137" value="⑨" style="text;html=1;strokeColor=none;fillColor=none;align=center;verticalAlign=middle;whiteSpace=wrap;rounded=0;fontColor=#0d0c0c;" parent="1" vertex="1">
                    <mxGeometry x="-530" y="-898" width="30" height="20" as="geometry"/>
                </mxCell>
                <mxCell id="138" value="&lt;b&gt;【Ｖ】&lt;/b&gt;" style="text;html=1;strokeColor=none;fillColor=none;align=center;verticalAlign=middle;whiteSpace=wrap;rounded=0;fontColor=#0d0c0c;" parent="1" vertex="1">
                    <mxGeometry x="-627" y="-905" width="43" height="35" as="geometry"/>
                </mxCell>
                <mxCell id="139" value="" style="rounded=1;whiteSpace=wrap;html=1;fillColor=#cdeb8b;strokeColor=#36393d;" parent="1" vertex="1">
                    <mxGeometry x="-622" y="-751" width="134" height="90" as="geometry"/>
                </mxCell>
                <mxCell id="140" value="JSP" style="text;html=1;strokeColor=none;fillColor=none;align=center;verticalAlign=middle;whiteSpace=wrap;rounded=0;fontColor=#050505;" parent="1" vertex="1">
                    <mxGeometry x="-581" y="-745" width="60" height="20" as="geometry"/>
                </mxCell>
                <mxCell id="141" value="quizQuestions.jsp" style="rounded=1;whiteSpace=wrap;html=1;" parent="1" vertex="1">
                    <mxGeometry x="-616" y="-722" width="120" height="31" as="geometry"/>
                </mxCell>
                <mxCell id="142" value="⑩" style="text;html=1;strokeColor=none;fillColor=none;align=center;verticalAlign=middle;whiteSpace=wrap;rounded=0;fontColor=#0d0c0c;" parent="1" vertex="1">
                    <mxGeometry x="-530" y="-750" width="30" height="20" as="geometry"/>
                </mxCell>
                <mxCell id="143" value="&lt;b&gt;【Ｖ】&lt;/b&gt;" style="text;html=1;strokeColor=none;fillColor=none;align=center;verticalAlign=middle;whiteSpace=wrap;rounded=0;fontColor=#0d0c0c;" parent="1" vertex="1">
                    <mxGeometry x="-627" y="-757" width="43" height="35" as="geometry"/>
                </mxCell>
                <mxCell id="151" value="フォワード" style="text;html=1;strokeColor=none;fillColor=none;align=center;verticalAlign=middle;whiteSpace=wrap;rounded=0;" parent="1" vertex="1">
                    <mxGeometry x="-613" y="-927" width="67" height="20" as="geometry"/>
                </mxCell>
                <mxCell id="152" value="" style="endArrow=classic;html=1;exitX=0.25;exitY=0;exitDx=0;exitDy=0;entryX=0.5;entryY=0;entryDx=0;entryDy=0;" parent="1" target="143" edge="1">
                    <mxGeometry width="50" height="50" relative="1" as="geometry">
                        <mxPoint x="-615.5" y="-976" as="sourcePoint"/>
                        <mxPoint x="-640" y="-722" as="targetPoint"/>
                        <Array as="points">
                            <mxPoint x="-630" y="-910"/>
                            <mxPoint x="-630" y="-802"/>
                        </Array>
                    </mxGeometry>
                </mxCell>
                <mxCell id="153" value="フォワード" style="text;html=1;strokeColor=none;fillColor=none;align=center;verticalAlign=middle;whiteSpace=wrap;rounded=0;" parent="1" vertex="1">
                    <mxGeometry x="-640" y="-779" width="67" height="20" as="geometry"/>
                </mxCell>
                <mxCell id="154" value="&lt;div style=&quot;&quot;&gt;&lt;span style=&quot;color: rgb(255, 255, 255); background-color: initial;&quot;&gt;&lt;br&gt;&lt;/span&gt;&lt;/div&gt;&lt;div style=&quot;&quot;&gt;&lt;span style=&quot;color: rgb(255, 255, 255); background-color: initial;&quot;&gt;&lt;br&gt;&lt;/span&gt;&lt;/div&gt;&lt;div style=&quot;&quot;&gt;&lt;span style=&quot;color: rgb(255, 255, 255); background-color: initial;&quot;&gt;&lt;br&gt;&lt;/span&gt;&lt;/div&gt;&lt;div style=&quot;&quot;&gt;&lt;span style=&quot;color: rgb(255, 255, 255); background-color: initial;&quot;&gt;&lt;br&gt;&lt;/span&gt;&lt;/div&gt;&lt;div style=&quot;&quot;&gt;&lt;span style=&quot;color: rgb(255, 255, 255); background-color: initial;&quot;&gt;&lt;br&gt;&lt;/span&gt;&lt;/div&gt;&lt;div style=&quot;&quot;&gt;&lt;span style=&quot;color: rgb(255, 255, 255); background-color: initial;&quot;&gt;&lt;br&gt;&lt;/span&gt;&lt;/div&gt;&lt;div style=&quot;&quot;&gt;&lt;span style=&quot;color: rgb(255, 255, 255); background-color: initial;&quot;&gt;&lt;br&gt;&lt;/span&gt;&lt;/div&gt;&lt;div style=&quot;&quot;&gt;&lt;span style=&quot;color: rgb(255, 255, 255); background-color: initial;&quot;&gt;&lt;br&gt;&lt;/span&gt;&lt;/div&gt;&lt;div style=&quot;&quot;&gt;&lt;span style=&quot;background-color: initial; color: rgb(255, 255, 255);&quot;&gt;ANSWER&lt;/span&gt;&lt;/div&gt;&lt;div style=&quot;&quot;&gt;&lt;span style=&quot;background-color: initial; color: rgb(255, 255, 255);&quot;&gt;テーブル&lt;/span&gt;&lt;br&gt;&lt;/div&gt;" style="swimlane;whiteSpace=wrap;html=1;startSize=12;align=center;fillColor=#cce5ff;strokeColor=#f7f7f8;" parent="1" vertex="1">
                    <mxGeometry x="116" y="-1122" width="110" height="90" as="geometry"/>
                </mxCell>
                <mxCell id="158" value="" style="shape=cylinder3;whiteSpace=wrap;html=1;boundedLbl=1;backgroundOutline=1;size=12;fontColor=#080808;" parent="1" vertex="1">
                    <mxGeometry x="103" y="-1003" width="133" height="135" as="geometry"/>
                </mxCell>
                <mxCell id="159" value="" style="shape=cylinder3;whiteSpace=wrap;html=1;boundedLbl=1;backgroundOutline=1;size=12;fontColor=#080808;" parent="1" vertex="1">
                    <mxGeometry x="-37" y="-1003" width="133" height="135" as="geometry"/>
                </mxCell>
                <mxCell id="160" value="&lt;div style=&quot;&quot;&gt;&lt;span style=&quot;color: rgb(255, 255, 255); background-color: initial;&quot;&gt;&lt;br&gt;&lt;/span&gt;&lt;/div&gt;&lt;div style=&quot;&quot;&gt;&lt;span style=&quot;color: rgb(255, 255, 255); background-color: initial;&quot;&gt;&lt;br&gt;&lt;/span&gt;&lt;/div&gt;&lt;div style=&quot;&quot;&gt;&lt;span style=&quot;color: rgb(255, 255, 255); background-color: initial;&quot;&gt;&lt;br&gt;&lt;/span&gt;&lt;/div&gt;&lt;div style=&quot;&quot;&gt;&lt;span style=&quot;color: rgb(255, 255, 255); background-color: initial;&quot;&gt;&lt;br&gt;&lt;/span&gt;&lt;/div&gt;&lt;div style=&quot;&quot;&gt;&lt;span style=&quot;color: rgb(255, 255, 255); background-color: initial;&quot;&gt;&lt;br&gt;&lt;/span&gt;&lt;/div&gt;&lt;div style=&quot;&quot;&gt;&lt;span style=&quot;color: rgb(255, 255, 255); background-color: initial;&quot;&gt;&lt;br&gt;&lt;/span&gt;&lt;/div&gt;&lt;div style=&quot;&quot;&gt;&lt;span style=&quot;color: rgb(255, 255, 255); background-color: initial;&quot;&gt;&lt;br&gt;&lt;/span&gt;&lt;/div&gt;&lt;div style=&quot;&quot;&gt;&lt;span style=&quot;color: rgb(255, 255, 255); background-color: initial;&quot;&gt;&lt;br&gt;&lt;/span&gt;&lt;/div&gt;&lt;div style=&quot;&quot;&gt;&lt;span style=&quot;background-color: initial; color: rgb(255, 255, 255);&quot;&gt;USER_QUIZ&lt;/span&gt;&lt;/div&gt;&lt;div style=&quot;&quot;&gt;&lt;span style=&quot;background-color: initial; color: rgb(255, 255, 255);&quot;&gt;テーブル&lt;/span&gt;&lt;br&gt;&lt;/div&gt;" style="swimlane;whiteSpace=wrap;html=1;startSize=12;align=center;fillColor=#cce5ff;strokeColor=#f7f7f8;" parent="1" vertex="1">
                    <mxGeometry x="-24" y="-974" width="110" height="90" as="geometry"/>
                </mxCell>
                <mxCell id="161" value="&lt;div style=&quot;&quot;&gt;&lt;span style=&quot;color: rgb(255, 255, 255); background-color: initial;&quot;&gt;&lt;br&gt;&lt;/span&gt;&lt;/div&gt;&lt;div style=&quot;&quot;&gt;&lt;span style=&quot;color: rgb(255, 255, 255); background-color: initial;&quot;&gt;&lt;br&gt;&lt;/span&gt;&lt;/div&gt;&lt;div style=&quot;&quot;&gt;&lt;span style=&quot;color: rgb(255, 255, 255); background-color: initial;&quot;&gt;&lt;br&gt;&lt;/span&gt;&lt;/div&gt;&lt;div style=&quot;&quot;&gt;&lt;span style=&quot;color: rgb(255, 255, 255); background-color: initial;&quot;&gt;&lt;br&gt;&lt;/span&gt;&lt;/div&gt;&lt;div style=&quot;&quot;&gt;&lt;span style=&quot;color: rgb(255, 255, 255); background-color: initial;&quot;&gt;&lt;br&gt;&lt;/span&gt;&lt;/div&gt;&lt;div style=&quot;&quot;&gt;&lt;span style=&quot;color: rgb(255, 255, 255); background-color: initial;&quot;&gt;&lt;br&gt;&lt;/span&gt;&lt;/div&gt;&lt;div style=&quot;&quot;&gt;&lt;span style=&quot;color: rgb(255, 255, 255); background-color: initial;&quot;&gt;&lt;br&gt;&lt;/span&gt;&lt;/div&gt;&lt;div style=&quot;&quot;&gt;&lt;span style=&quot;color: rgb(255, 255, 255); background-color: initial;&quot;&gt;&lt;br&gt;&lt;/span&gt;&lt;/div&gt;&lt;div style=&quot;&quot;&gt;&lt;span style=&quot;background-color: initial; color: rgb(255, 255, 255);&quot;&gt;USER_ANSWER&lt;/span&gt;&lt;/div&gt;&lt;div style=&quot;&quot;&gt;&lt;span style=&quot;background-color: initial; color: rgb(255, 255, 255);&quot;&gt;テーブル&lt;/span&gt;&lt;br&gt;&lt;/div&gt;" style="swimlane;whiteSpace=wrap;html=1;startSize=12;align=center;fillColor=#cce5ff;strokeColor=#f7f7f8;" parent="1" vertex="1">
                    <mxGeometry x="116" y="-974" width="110" height="90" as="geometry"/>
                </mxCell>
                <mxCell id="162" value="" style="endArrow=classic;startArrow=classic;html=1;fontColor=#ffffff;entryX=0;entryY=0.5;entryDx=0;entryDy=0;" parent="1" target="160" edge="1">
                    <mxGeometry width="50" height="50" relative="1" as="geometry">
                        <mxPoint x="-80" y="-987" as="sourcePoint"/>
                        <mxPoint x="-14" y="-1047" as="targetPoint"/>
                    </mxGeometry>
                </mxCell>
                <mxCell id="169" value="" style="shape=cylinder3;whiteSpace=wrap;html=1;boundedLbl=1;backgroundOutline=1;size=12;fontColor=#080808;" parent="1" vertex="1">
                    <mxGeometry x="103" y="-782" width="133" height="135" as="geometry"/>
                </mxCell>
                <mxCell id="170" value="" style="shape=cylinder3;whiteSpace=wrap;html=1;boundedLbl=1;backgroundOutline=1;size=12;fontColor=#080808;" parent="1" vertex="1">
                    <mxGeometry x="-37" y="-782" width="133" height="135" as="geometry"/>
                </mxCell>
                <mxCell id="171" value="&lt;div style=&quot;&quot;&gt;&lt;span style=&quot;color: rgb(255, 255, 255); background-color: initial;&quot;&gt;&lt;br&gt;&lt;/span&gt;&lt;/div&gt;&lt;div style=&quot;&quot;&gt;&lt;span style=&quot;color: rgb(255, 255, 255); background-color: initial;&quot;&gt;&lt;br&gt;&lt;/span&gt;&lt;/div&gt;&lt;div style=&quot;&quot;&gt;&lt;span style=&quot;color: rgb(255, 255, 255); background-color: initial;&quot;&gt;&lt;br&gt;&lt;/span&gt;&lt;/div&gt;&lt;div style=&quot;&quot;&gt;&lt;span style=&quot;color: rgb(255, 255, 255); background-color: initial;&quot;&gt;&lt;br&gt;&lt;/span&gt;&lt;/div&gt;&lt;div style=&quot;&quot;&gt;&lt;span style=&quot;color: rgb(255, 255, 255); background-color: initial;&quot;&gt;&lt;br&gt;&lt;/span&gt;&lt;/div&gt;&lt;div style=&quot;&quot;&gt;&lt;span style=&quot;color: rgb(255, 255, 255); background-color: initial;&quot;&gt;&lt;br&gt;&lt;/span&gt;&lt;/div&gt;&lt;div style=&quot;&quot;&gt;&lt;span style=&quot;color: rgb(255, 255, 255); background-color: initial;&quot;&gt;&lt;br&gt;&lt;/span&gt;&lt;/div&gt;&lt;div style=&quot;&quot;&gt;&lt;span style=&quot;color: rgb(255, 255, 255); background-color: initial;&quot;&gt;&lt;br&gt;&lt;/span&gt;&lt;/div&gt;&lt;div style=&quot;&quot;&gt;&lt;span style=&quot;background-color: initial; color: rgb(255, 255, 255);&quot;&gt;USER_QUIZ&lt;/span&gt;&lt;/div&gt;&lt;div style=&quot;&quot;&gt;&lt;span style=&quot;background-color: initial; color: rgb(255, 255, 255);&quot;&gt;テーブル&lt;/span&gt;&lt;br&gt;&lt;/div&gt;" style="swimlane;whiteSpace=wrap;html=1;startSize=12;align=center;fillColor=#cce5ff;strokeColor=#f7f7f8;" parent="1" vertex="1">
                    <mxGeometry x="-24" y="-753" width="110" height="90" as="geometry"/>
                </mxCell>
                <mxCell id="172" value="&lt;div style=&quot;&quot;&gt;&lt;span style=&quot;color: rgb(255, 255, 255); background-color: initial;&quot;&gt;&lt;br&gt;&lt;/span&gt;&lt;/div&gt;&lt;div style=&quot;&quot;&gt;&lt;span style=&quot;color: rgb(255, 255, 255); background-color: initial;&quot;&gt;&lt;br&gt;&lt;/span&gt;&lt;/div&gt;&lt;div style=&quot;&quot;&gt;&lt;span style=&quot;color: rgb(255, 255, 255); background-color: initial;&quot;&gt;&lt;br&gt;&lt;/span&gt;&lt;/div&gt;&lt;div style=&quot;&quot;&gt;&lt;span style=&quot;color: rgb(255, 255, 255); background-color: initial;&quot;&gt;&lt;br&gt;&lt;/span&gt;&lt;/div&gt;&lt;div style=&quot;&quot;&gt;&lt;span style=&quot;color: rgb(255, 255, 255); background-color: initial;&quot;&gt;&lt;br&gt;&lt;/span&gt;&lt;/div&gt;&lt;div style=&quot;&quot;&gt;&lt;span style=&quot;color: rgb(255, 255, 255); background-color: initial;&quot;&gt;&lt;br&gt;&lt;/span&gt;&lt;/div&gt;&lt;div style=&quot;&quot;&gt;&lt;span style=&quot;color: rgb(255, 255, 255); background-color: initial;&quot;&gt;&lt;br&gt;&lt;/span&gt;&lt;/div&gt;&lt;div style=&quot;&quot;&gt;&lt;span style=&quot;color: rgb(255, 255, 255); background-color: initial;&quot;&gt;&lt;br&gt;&lt;/span&gt;&lt;/div&gt;&lt;div style=&quot;&quot;&gt;&lt;span style=&quot;background-color: initial; color: rgb(255, 255, 255);&quot;&gt;USER_ANSWER&lt;/span&gt;&lt;/div&gt;&lt;div style=&quot;&quot;&gt;&lt;span style=&quot;background-color: initial; color: rgb(255, 255, 255);&quot;&gt;テーブル&lt;/span&gt;&lt;br&gt;&lt;/div&gt;" style="swimlane;whiteSpace=wrap;html=1;startSize=12;align=center;fillColor=#cce5ff;strokeColor=#f7f7f8;" parent="1" vertex="1">
                    <mxGeometry x="116" y="-753" width="110" height="90" as="geometry"/>
                </mxCell>
                <mxCell id="173" value="" style="endArrow=classic;startArrow=classic;html=1;fontColor=#ffffff;entryX=0;entryY=0.5;entryDx=0;entryDy=0;exitX=1;exitY=0.5;exitDx=0;exitDy=0;" parent="1" target="171" edge="1" source="109">
                    <mxGeometry width="50" height="50" relative="1" as="geometry">
                        <mxPoint x="-60" y="-738" as="sourcePoint"/>
                        <mxPoint x="-14" y="-777" as="targetPoint"/>
                    </mxGeometry>
                </mxCell>
                <mxCell id="174" value="" style="rounded=1;whiteSpace=wrap;html=1;fillColor=#cdeb8b;strokeColor=#36393d;" parent="1" vertex="1">
                    <mxGeometry x="-799" y="-899" width="134" height="90" as="geometry"/>
                </mxCell>
                <mxCell id="175" value="JSP" style="text;html=1;strokeColor=none;fillColor=none;align=center;verticalAlign=middle;whiteSpace=wrap;rounded=0;fontColor=#050505;" parent="1" vertex="1">
                    <mxGeometry x="-758" y="-893" width="60" height="20" as="geometry"/>
                </mxCell>
                <mxCell id="176" value="quizSelect.jsp" style="rounded=1;whiteSpace=wrap;html=1;" parent="1" vertex="1">
                    <mxGeometry x="-793" y="-870" width="120" height="31" as="geometry"/>
                </mxCell>
                <mxCell id="177" value="③" style="text;html=1;strokeColor=none;fillColor=none;align=center;verticalAlign=middle;whiteSpace=wrap;rounded=0;fontColor=#0d0c0c;" parent="1" vertex="1">
                    <mxGeometry x="-707" y="-898" width="30" height="20" as="geometry"/>
                </mxCell>
                <mxCell id="178" value="&lt;b&gt;【Ｖ】&lt;/b&gt;" style="text;html=1;strokeColor=none;fillColor=none;align=center;verticalAlign=middle;whiteSpace=wrap;rounded=0;fontColor=#0d0c0c;" parent="1" vertex="1">
                    <mxGeometry x="-804" y="-905" width="43" height="35" as="geometry"/>
                </mxCell>
                <mxCell id="179" value="フォワード" style="text;html=1;strokeColor=none;fillColor=none;align=center;verticalAlign=middle;whiteSpace=wrap;rounded=0;" parent="1" vertex="1">
                    <mxGeometry x="-790" y="-927" width="67" height="20" as="geometry"/>
                </mxCell>
                <mxCell id="180" style="edgeStyle=none;html=1;exitX=0;exitY=0;exitDx=0;exitDy=0;entryX=0.418;entryY=-0.011;entryDx=0;entryDy=0;entryPerimeter=0;" parent="1" target="174" edge="1">
                    <mxGeometry relative="1" as="geometry">
                        <mxPoint x="-623" y="-989" as="sourcePoint"/>
                        <mxPoint x="-574" y="-886.25" as="targetPoint"/>
                    </mxGeometry>
                </mxCell>
                <mxCell id="181" value="&lt;font color=&quot;#080808&quot;&gt;④&lt;/font&gt;" style="text;html=1;strokeColor=none;fillColor=none;align=center;verticalAlign=middle;whiteSpace=wrap;rounded=0;fontColor=#ffffff;" parent="1" vertex="1">
                    <mxGeometry x="-509" y="-1032" width="30" height="20" as="geometry"/>
                </mxCell>
                <mxCell id="182" value="userId=入力値&lt;br&gt;quizSelect=New" style="rounded=1;whiteSpace=wrap;html=1;align=left;" parent="1" vertex="1">
                    <mxGeometry x="-789" y="-793" width="112" height="38" as="geometry"/>
                </mxCell>
                <mxCell id="183" value="POST" style="text;html=1;strokeColor=none;fillColor=none;align=center;verticalAlign=middle;whiteSpace=wrap;rounded=0;" parent="1" vertex="1">
                    <mxGeometry x="-727" y="-811" width="60" height="20" as="geometry"/>
                </mxCell>
                <mxCell id="184" value="&#10;&#10;&#10;&#10;［フィールド］&#10;・String userId&#10;・String quizSelect" style="swimlane;startSize=0;fontColor=#ffffff;align=left;" parent="1" vertex="1">
                    <mxGeometry x="-454" y="-814" width="124" height="59" as="geometry"/>
                </mxCell>
            </root>
        </mxGraphModel>
    </diagram>
</mxfile>